<?xml version="1.0" encoding="utf-8"?>
<svg id="master-artboard" viewBox="0 0 648.6204223632812 118.16349792480469" version="1.1" xmlns="http://www.w3.org/2000/svg" x="0px" y="0px" style="enable-background:new 0 0 336 235.2;" width="648.6204223632812px" height="118.16349792480469px" xmlns:xlink="http://www.w3.org/1999/xlink"><rect id="ee-background" x="0" y="0" width="648.6204223632812" height="118.16349792480469" style="fill: white; fill-opacity: 0; pointer-events: none;"/><g transform="matrix(1.2760416269302368, 0, 0, 1.2760416269302368, -425.31512451171875, -447.97350215911865)"><metadata id="metadata719311">
    
  </metadata><linearGradient spreadMethod="pad" y2="30%" x2="-10%" y1="120%" x1="30%" id="3d_gradient2-logo-cbb78eea-26a0-4d86-94f3-ba0f59a0d236">
    <stop id="stop719286" stop-opacity="1" stop-color="#ffffff" offset="0%"/>
    <stop id="stop719288" stop-opacity="1" stop-color="#000000" offset="100%"/>
  </linearGradient><linearGradient gradientTransform="rotate(-30)" spreadMethod="pad" y2="30%" x2="-10%" y1="120%" x1="30%" id="3d_gradient3-logo-cbb78eea-26a0-4d86-94f3-ba0f59a0d236">
    <stop id="stop719291" stop-opacity="1" stop-color="#ffffff" offset="0%"/>
    <stop id="stop719293" stop-opacity="1" stop-color="#cccccc" offset="50%"/>
    <stop id="stop719295" stop-opacity="1" stop-color="#000000" offset="100%"/>
  </linearGradient><g id="logo-group" transform="matrix(1, 0, 0, 1, 82.0297475874695, 12.619961193883398)">
    <image id="container" x="272" y="144" width="480" height="480" style="display: none;" transform="translate(0 0)" xlink:href=""/>
    <g id="logo-center" transform="translate(0 0)">
      <image id="icon_container" x="0" y="0" style="display: none;" xlink:href=""/>
      <g id="slogan" style="font-style:normal;font-weight:400;font-size:32px;line-height:1;font-family:Arvo;font-variant-ligatures:none;text-align:center;text-anchor:middle" transform="translate(0 0)"/>
      <g id="title" style="font-style:normal;font-weight:normal;font-size:72px;line-height:1;font-family:'Brandmark Sans 16 Color Shadow';font-variant-ligatures:normal;text-align:center;text-anchor:middle" transform="translate(0 0)">
        <g id="path719314" aria-label="A" transform="translate(0 325.02412000000004) translate(269.18096460000004 16.952000000000005) scale(1.67) translate(-366.96163 50.4)"> <path class="c1" d="M107.9,74.8H101h-6.5l-19.8,50.4H90l3.2-8.9h15.5l1.6,8.9h15l-10.8-50.4C114.5,74.8,107.9,74.8,107.9,74.8z M97,105.5l6.4-18l3.3,18H97z" transform="translate(292.26163 -125.2)" stroke-width="0" stroke-linejoin="miter" stroke-miterlimit="2" fill="#f9f9f9" stroke="#f9f9f9"/> <linearGradient id="705e1f1f-4536-41da-b374-d4e1d080212b" gradientUnits="userSpaceOnUse" x1="85.41597" y1="713.57141" x2="112.23496" y2="706.38531" gradientTransform="matrix(1 0 0 1 0 -598)"> <stop offset="0.2304" style="stop-color:#000000;stop-opacity:0.8"/> <stop offset="0.6213" style="stop-color:#000000;stop-opacity:0"/> </linearGradient> <path class="highlight" fill="url(#705e1f1f-4536-41da-b374-d4e1d080212b)" d="M108.7,116.3H93.2l3.8-10.8h9.7L108.7,116.3z" transform="translate(292.26163 -125.2)" stroke-width="0" stroke-linejoin="miter" stroke-miterlimit="2" opacity="0.61"/> </g>
        <g id="path719316" aria-label="G" transform="translate(0 325.02412000000004) translate(355.68606280000006 15.749600000000008) scale(1.67) translate(-418.76109 51.12)"> <path class="c1" d="M122.1,98.2l-1,10.7l-0.9,10.1c-4.2,3-9.5,6.9-17.9,6.9c-15.8,0-25.6-11.6-24.4-25.9 c1.3-14.3,13.1-25.9,28.9-25.9c5.7,0,10.6,1.8,14.3,4.8L120,92.6c-3.9-2.6-9.2-5.3-14.4-5.3c-8.8,0-13.7,7.1-13.7,14.2 c0,3.3,1.9,11.4,11.5,11.4c1,0,2.1-0.1,3.2-0.3l0.2-3.5h-7.1l1-10.8C100.7,98.2,122.1,98.2,122.1,98.2z" transform="translate(340.960099 -125.22)" stroke-width="0" stroke-linejoin="miter" stroke-miterlimit="2" fill="#f9f9f9" stroke="#f9f9f9"/> <linearGradient id="cb289fdf-9f9a-46a2-abcd-f255f5549b2e" gradientUnits="userSpaceOnUse" x1="91.55" y1="-482.76837" x2="91.55" y2="-497.62659" gradientTransform="matrix(1 0 0 -1 0 -396)"> <stop offset="0.1417" style="stop-color:#000000;stop-opacity:0.8"/> <stop offset="0.9802" style="stop-color:#000000;stop-opacity:0"/> </linearGradient> <path class="highlight" fill="url(#cb289fdf-9f9a-46a2-abcd-f255f5549b2e)" d="M91.9,101.4c0,0.1,0,0.2,0,0.3l-14,0.3l0,0v-0.1l0,0c1-10.3,11.9-18,27.3-14.6l0,0 C96.7,87.5,91.9,94.5,91.9,101.4z" transform="translate(340.960099 -125.22)" stroke-width="0" stroke-linejoin="miter" stroke-miterlimit="2" opacity="0.61"/> </g>
        <g id="path719318" aria-label="E" transform="translate(0 325.02412000000004) translate(434.64059000000003 16.952000000000005) scale(1.67) translate(-466.03925 50.4)"> <path class="c1" d="M98.7,74.8h21.5l-1,10.8H97.7l-0.8,9h14.3l-1,10.8H96l-0.8,9h21.7l-1,10.8H94.2l0,0H79.8l3.5-39.6l0.9-10.8 l0,0L98.7,74.8L98.7,74.8z" transform="translate(386.23925 -125.2)" stroke-width="0" stroke-linejoin="miter" stroke-miterlimit="2" fill="#f9f9f9" stroke="#f9f9f9"/> <linearGradient id="ec72abfc-5509-43f9-8bcc-a1b319d69575" gradientUnits="userSpaceOnUse" x1="88.75" y1="-481.60001" x2="88.75" y2="-521.20001" gradientTransform="matrix(1 0 0 -1 0 -396)"> <stop offset="0.06138" style="stop-color:#000000;stop-opacity:0.8"/> <stop offset="0.2125" style="stop-color:#000000;stop-opacity:0"/> </linearGradient> <path class="highlight" fill="url(#ec72abfc-5509-43f9-8bcc-a1b319d69575)" d="M83.3,85.6h14.4l-3.5,39.6H79.8L83.3,85.6z" transform="translate(386.23925 -125.2)" stroke-width="0" stroke-linejoin="miter" stroke-miterlimit="2" opacity="0.61"/> </g>
        <g id="path719320" aria-label="N" transform="translate(0 325.02412000000004) translate(502.74527750000004 16.952000000000005) scale(1.67) translate(-506.8205 50.4)"> <path class="c1" d="M111.1,74.8h14.4l-4.5,50.4h-14.4L91.2,99.6l-2.3,25.6H74.5L79,74.8h14.4l15.3,25.6L111.1,74.8z" transform="translate(432.3205 -125.2)" stroke-width="0" stroke-linejoin="miter" stroke-miterlimit="2" fill="#f9f9f9" stroke="#f9f9f9"/> <linearGradient id="9f6b1186-509c-4d98-95a0-456bac0ca78d" gradientUnits="userSpaceOnUse" x1="91.26171" y1="-495.2355" x2="108.73611" y2="-496.76431" gradientTransform="matrix(1 0 0 -1 0 -396)"> <stop offset="0" style="stop-color:#000000;stop-opacity:0.8"/> <stop offset="0.3142" style="stop-color:#000000;stop-opacity:0.2511"/> <stop offset="0.4899" style="stop-color:#000000;stop-opacity:0"/> </linearGradient> <path class="highlight" fill="url(#9f6b1186-509c-4d98-95a0-456bac0ca78d)" d="M108.8,100.4L108.8,100.4l-2.2,24.8L91.2,99.6l2.2-24.8L108.8,100.4z" transform="translate(432.3205 -125.2)" stroke-width="0" stroke-linejoin="miter" stroke-miterlimit="2" opacity="0.61"/> </g>
        <g id="path719322" aria-label="C" transform="translate(0 325.02412000000004) translate(591.2343523999999 15.749600000000008) scale(1.67) translate(-559.80797 51.12)"> <path class="c1" d="M107.3,74.1c5.7,0,10.6,1.8,14.3,4.8l-1.2,13.7c-3.9-2.6-9.2-5.3-14.4-5.3c-0.1,0-0.3,0-0.4,0 c-8.5,0.2-13.3,7.2-13.3,14.2c0,0.1,0,0.2,0,0.3c0.1,3.5,2.1,11.1,11.5,11.1c5,0,10.8-2.6,15.3-5.2l-1.2,13.6 c-4.2,3-9.4,4.7-15.1,4.7c-15.1,0-24.7-10.5-24.5-23.9v-0.1c0-0.6,0-1.3,0.1-1.9C79.7,85.7,91.5,74.1,107.3,74.1z" transform="translate(481.511036 -125.22)" stroke-width="0" stroke-linejoin="miter" stroke-miterlimit="2" fill="#f9f9f9" stroke="#f9f9f9"/> <linearGradient id="f49ec9aa-da99-45d2-8fbf-04ac00a7e42b" gradientUnits="userSpaceOnUse" x1="92.05" y1="-482.40619" x2="92.05" y2="-497.61871" gradientTransform="matrix(1 0 0 -1 0 -396)"> <stop offset="0.1417" style="stop-color:#000000;stop-opacity:0.8"/> <stop offset="0.4769" style="stop-color:#000000;stop-opacity:0.4202"/> <stop offset="0.9802" style="stop-color:#000000;stop-opacity:0"/> </linearGradient> <path class="highlight" fill="url(#f49ec9aa-da99-45d2-8fbf-04ac00a7e42b)" d="M92.4,101.4c0,0.1,0,0.2,0,0.3l-14,0.3l0,0v-0.1l0,0c1-10.3,9.5-19.1,27.3-14.6l0,0 C97.1,87.5,92.4,94.5,92.4,101.4z" transform="translate(481.511036 -125.22)" stroke-width="0" stroke-linejoin="miter" stroke-miterlimit="2" opacity="0.61"/> </g>
        <g id="path719324" aria-label="Y" transform="translate(0 325.02412000000004) translate(666.5628921 16.952000000000005) scale(1.67) translate(-604.91488 50.4)"> <path class="c1" d="M108.9,74.8h17.6l-21.3,26.7l-2.1,23.7H88.6l2.1-23.7h-0.2l0.1-0.1l-17-26.6h16.9l8.2,14.9L108.9,74.8z" transform="translate(531.31488 -125.2)" stroke-width="0" stroke-linejoin="miter" stroke-miterlimit="2" fill="#f9f9f9" stroke="#f9f9f9"/> <linearGradient id="56f1978b-0a0f-4682-b32f-6c63ed2d9d9f" gradientUnits="userSpaceOnUse" x1="99.78179" y1="-490.28854" x2="127.31824" y2="-474.39044" gradientTransform="matrix(1 0 0 -1 0 -398)"> <stop offset="0.00129" style="stop-color:#000000;stop-opacity:0.8"/> <stop offset="0.3725" style="stop-color:#000000;stop-opacity:0"/> </linearGradient> <path class="highlight" fill="url(#56f1978b-0a0f-4682-b32f-6c63ed2d9d9f)" d="M126.4,74.8l-21.3,26.7l-6.5-11.8l10.2-14.9C108.9,74.8,126.4,74.8,126.4,74.8z" transform="translate(531.31488 -125.2)" stroke-width="0" stroke-linejoin="miter" stroke-miterlimit="2" opacity="0.61"/> </g>
            </g>
      <image id="icon" x="0" y="0" style="display: none;" xlink:href=""/>
    </g>
  </g></g></svg>